PathFileType	4	(X/Y/Z)	Patient4_TMGait_0pt6_02_right_13.trc.trc
DataRate	CameraRate	NumFrames	NumMarkers	Units	OrigDataRate	OrigDataStartFrame	OrigNumFrames
81.395348837209	81.395348837209	5	33	mm	81.395348837209	124	       141
Frame#	Time	Sacral			L.Shoulder			Chest			R.Shoulder			Neck			R.ASIS			L.ASIS			R.Thigh.Superior			R.Thigh.Lateral			R.Thigh.Inferior			R.Patella			L.Thigh.Superior			L.Thigh.Lateral			L.Thigh.Inferior			L.Patella			L.Shank.Superior			L.Shank.Lateral			L.Shank.Inferior			R.Shank.Superior			R.Shank.Lateral			R.Shank.Inferior			R.Heel			R.Midfoot.Superior			R.Midfoot.Lateral			R.Toe			L.Heel			L.Midfoot.Lateral			L.Midfoot.Superior			L.Toe			L.Elbow			L.Wrist			R.Elbow			R.Wrist			
		X1	Y1	Z1	X2	Y2	Z2	X3	Y3	Z3	X4	Y4	Z4	X5	Y5	Z5	X6	Y6	Z6	X7	Y7	Z7	X8	Y8	Z8	X9	Y9	Z9	X10	Y10	Z10	X11	Y11	Z11	X12	Y12	Z12	X13	Y13	Z13	X14	Y14	Z14	X15	Y15	Z15	X16	Y16	Z16	X17	Y17	Z17	X18	Y18	Z18	X19	Y19	Z19	X20	Y20	Z20	X21	Y21	Z21	X22	Y22	Z22	X23	Y23	Z23	X24	Y24	Z24	X25	Y25	Z25	X26	Y26	Z26	X27	Y27	Z27	X28	Y28	Z28	X29	Y29	Z29	X30	Y30	Z30	X31	Y31	Z31	X32	Y32	Z32	X33	Y33	Z33	

124	16.901142857143	754.731292432898	994.388996609042	460.026898536389	947.952465621160	1409.661373804269	270.130529142138	1037.079218057748	1349.975424838509	441.814315734033	941.282402313744	1436.922372971149	602.823548662230	935.689890734137	1480.423752092861	416.473262940025	974.785505415841	931.446049190778	593.029600227112	980.481292870864	949.143244393441	316.898554799655	1048.028378377519	753.259616270669	569.382752003152	991.143804441886	630.682688201570	631.846239232417	1083.149998568699	594.239984778483	556.359487831857	1108.476036495457	512.722872080942	567.138070107583	976.792565962777	723.097175044716	345.398491626934	858.830942002232	630.323506746876	281.462796067352	915.492656828380	535.493661823249	346.481007906244	898.178472453623	466.705296093500	355.154847310414	861.155636507729	402.129946089141	346.970992912008	752.661875263487	304.014722928366	296.956296377267	784.311851984505	186.212056839311	368.436539286673	1098.410085298703	422.624880939314	576.318734521341	1048.012516377915	306.615625562126	635.810495085708	1119.801915942380	224.217272485648	583.264496692876	1029.676648139987	42.882091075007	552.189363952160	1194.425748754966	110.304908923406	591.152227773896	1113.599470230609	40.271064375715	626.123188466563	1317.582584310984	69.180959999236	616.685379946840	639.568830380619	39.331784489215	414.007778025101	711.093847206793	34.838874443084	331.455689039869	796.231370033029	94.928732637686	355.916381219024	923.228710877004	41.760659201280	323.224918618211	984.145169232908	1062.858956022317	143.145607846715	1202.456906147206	923.528457100392	171.832784000746	783.394150313616	1145.489959170046	740.830299671543	745.932204445416	893.399433860495	795.921612931557	
125	16.913428571429	757.225942413501	992.915005431451	462.648245038160	948.222496893232	1409.443401612032	273.407777980930	1037.721676252230	1350.031144888450	445.047176200002	941.049605662269	1435.793785144223	606.310364371848	935.523413392471	1479.850898500296	419.979427643682	977.817688100111	930.579574126866	595.127910673152	983.706801515708	948.749421478261	319.053914339204	1051.222425481713	751.514163418861	571.065117034270	992.273740033925	629.054719253143	632.098454999262	1084.353858583377	592.642982917125	556.951824934687	1107.940057913359	509.916317391275	566.789245033324	979.228090342225	721.973725055272	346.767321872970	860.614767323647	629.357762940877	283.496123917770	917.660659026252	534.050933955243	347.864558511967	900.256392103271	464.314910809410	356.173222069896	861.154239439626	400.459561979814	348.095920821221	750.322046113685	304.967717895775	298.013578261080	779.398586568371	186.056463486720	368.661916991602	1096.719437090662	419.279478664543	575.726391740897	1044.086699597473	303.995455806204	634.997491270886	1113.575682265566	220.233090899999	581.767622147372	1018.462367284425	41.939673307105	550.972967546363	1184.814303208391	105.536258994336	589.036593123317	1102.288787801338	38.269970668088	625.054894098992	1307.402959136175	61.450330111903	614.961752971317	632.219019342938	41.050502481319	413.631732785997	703.845360155327	35.432238055978	331.365294045669	789.522334916411	95.047502629927	355.613382955298	915.979239299986	41.238838839231	323.154873923251	982.477216714005	1061.959615992893	146.672726636994	1201.375238812094	923.577536319276	175.249766749342	785.412151270407	1141.969964459656	742.256290101059	750.728645095411	888.879911099770	795.604676836820	
126	16.925714285714	759.616567546205	991.860537133404	465.359584328373	948.570626532917	1409.604052641834	276.774761328535	1038.462517503197	1350.331787657022	448.315676657116	941.074256842107	1434.922099519731	609.885581647687	935.558552608086	1479.628699216797	423.608559046757	980.725658843793	930.114722056792	597.260702895704	986.667357190390	948.612884194847	321.298807615451	1054.154971560304	750.160063973396	572.687909856694	993.525514467123	628.071593389507	632.666483343936	1085.402849667595	591.525221528270	557.572740995897	1107.403887358427	507.682433988250	566.684997624177	982.032466301340	721.241943889042	348.294110402952	863.187888534417	628.425062646694	285.659347662205	921.040059899898	532.775603780903	349.309362384186	903.692269721056	461.916269551766	357.066504773360	862.200460298615	398.842885133445	349.173712252840	748.802120753134	306.376470734108	299.092083255787	775.072264255353	186.290877866468	368.777095440878	1095.135634204190	416.658899766294	575.438494994936	1040.664716052308	302.082030929776	634.744289420959	1107.836801000389	217.069212184754	580.642672095253	1008.130105754086	41.413105124567	550.215898687104	1175.826878667556	101.833870652815	587.370872258793	1091.907022315040	36.935892055774	624.387662895382	1297.969132357908	55.266483546761	613.597878429508	625.059972444086	43.815994689134	413.185132616047	696.686131334887	36.577022737145	331.233008003585	783.152892044238	95.323672759782	355.155272031098	908.681967332404	40.647897348170	323.072868280640	980.565926022953	1061.316512275418	150.519000541372	1199.523999393647	922.943441260548	178.694794726413	788.381689016681	1138.203477138021	743.698781970080	756.813710683770	884.053027671623	795.119665939038	
127	16.938000000000	761.838494361504	991.298156539378	468.124011806482	949.026021555659	1410.185280690404	280.197497621166	1039.295933303064	1350.899368780303	451.591259037893	941.377017490883	1434.383440469168	613.496832578288	935.816468630700	1479.794261980128	427.313099429227	983.416864345010	930.095879958547	599.468036638341	989.254421165004	948.765521697539	323.653807469151	1056.705296103376	749.278427711541	574.281508415123	994.823002170325	627.746992219121	633.586931060711	1086.219465599350	590.898299944086	558.280657961249	1106.790430163148	506.053518414315	566.910299068681	985.193597539393	720.961892139852	350.040931702442	866.660238137068	627.540498401199	287.910364098508	925.758752441994	531.720889825347	350.802445136221	908.609389877148	459.576981741138	357.787273071583	864.441719374515	397.329139913807	350.156952298801	748.269491931066	308.319315519197	300.155876407247	771.483941387328	187.023387018296	368.765587005493	1093.579201070346	414.782150132182	575.509988041744	1037.656683104821	300.877785018058	635.054911697051	1102.557017662719	214.756582527260	579.931427564104	998.804003732306	41.225157570092	549.858276177264	1167.532344509046	99.229249176634	586.195339690291	1082.564682676206	36.196245216328	624.072796832561	1289.351940202247	50.767109285878	612.632773749506	618.216048924853	47.885221840561	412.678596386085	689.681517342732	38.467462062273	331.059467558534	777.227181203120	95.823980273896	354.536246292552	901.324600072975	39.980183230142	322.985593243756	978.411458728150	1061.009365717601	154.664878025561	1196.871469871635	921.661735107971	182.158155969428	792.302479272851	1134.350236160488	745.171898403054	764.234189038029	879.099508356640	794.474170274158	
128	16.950285714286	763.839214169969	991.253412372010	470.920686034680	949.597440132499	1411.189855200110	283.642574884607	1040.205234633932	1351.731605944713	454.846424441899	941.956876918282	1434.223388286643	617.093599090453	936.289896044769	1480.347515673952	431.043238904517	985.827589604585	930.526064093932	601.785115579884	991.400084944712	949.221712453777	326.121338411116	1058.795280906083	748.888889731776	575.887771481694	996.046144408957	628.017240062193	634.855089807570	1086.724470038203	590.700457562572	559.139994793674	1105.984855197002	504.977213096825	567.517188688956	988.695303834646	721.165835622438	352.041756924331	871.115595499512	626.712969154710	290.191189459865	931.899401531488	530.930285127830	352.311438741628	915.079453382194	457.366587489691	358.292480719467	868.001355457376	395.963926512970	351.000368402357	748.883920213241	310.852331948049	301.167457171626	768.783724277197	188.351642307962	368.622305132938	1091.916852510409	413.577151726698	575.961680703893	1034.858126432820	300.300870156767	635.864973039937	1097.600085941148	213.224211316600	579.638277383545	990.422136019046	41.280463296570	549.818810092507	1159.861707473357	97.621903194318	585.495495760474	1074.186843561857	35.925966598397	624.041808103881	1281.473160294181	47.863644711194	612.057310814922	611.840891338947	53.482768234512	412.128277315618	682.925682699169	41.302696049414	330.848729158719	771.856246013870	96.628828889723	353.767637688058	893.912703615907	39.228029381081	322.901736556041	976.008985297157	1061.089735378466	159.075242274318	1193.387620354088	919.779418382880	185.631366321789	797.128210909376	1130.560714580965	746.694139974543	773.042447484704	874.200250724980	793.680689958379	
